<?xml version="1.0" encoding="utf-8"?><!-- Generator: Adobe Illustrator 16.0.0, SVG Export Plug-In . SVG Version: 6.00 Build 0)  --><!DOCTYPE svg PUBLIC "-//W3C//DTD SVG 1.1//EN" "http://www.w3.org/Graphics/SVG/1.1/DTD/svg11.dtd"><svg version="1.1" id="Layer_1" xmlns="http://www.w3.org/2000/svg" xmlns:xlink="http://www.w3.org/1999/xlink" x="0px" y="0px"	 width="72px" height="21px" viewBox="0 0 72 21" enable-background="new 0 0 72 21" xml:space="preserve"><g>	<g>		<path fill="#FFFFFF" d="M39.001,5.315c-4.015,0-7.042,3.315-7.042,7.712v0.059c0,4.508,3.068,7.654,7.461,7.654			c2.306,0,5.234-1.605,6.18-4.585l-3.134-0.013c-0.61,1.181-1.643,1.807-2.99,1.811c-2.111,0-3.568-1.217-4.012-3.338l-0.096-0.455			h10.532c0.017-0.254,0.032-0.535,0.032-0.785C45.932,9.657,44.116,5.315,39.001,5.315z M35.388,11.814l0.016-0.098			c0.379-2.264,1.724-3.615,3.597-3.615c1.912,0,3.225,1.357,3.516,3.63l0.012,0.095L35.388,11.814z M7.189,0.328			C3.157,0.328,0,3.571,0,7.712c0,3.969,3.223,7.329,7.04,7.329c3.924,0,7.116-3.287,7.116-7.329			C14.156,3.64,11.031,0.328,7.189,0.328z M7.04,12.17c-2.316,0-4.199-2-4.199-4.458c0-1.229,0.417-2.312,1.209-3.133			c0.753-0.836,1.928-1.382,2.99-1.382c2.397,0,4.274,1.982,4.274,4.515C11.314,10.252,9.478,12.17,7.04,12.17z M7.079,16.021			c-2.729,0-5.205,1.717-6.261,4.307H13.34C12.282,17.738,9.807,16.021,7.079,16.021z M27.835,2.653			c-2.266-1.999-5.248-2.299-8.134-2.325h-3.988v19.999h4.071c2.759,0,5.656-0.179,8.049-2.298c2.042-1.801,3.309-4.715,3.309-7.605			C31.142,7.455,29.843,4.407,27.835,2.653z M25.479,15.686c-1.744,1.327-3.581,1.433-5.725,1.433H19.07V3.536h0.497			c2.08,0,4.001,0.097,5.659,1.261c1.702,1.214,2.718,3.318,2.718,5.627C27.944,12.512,27.044,14.43,25.479,15.686z M65.858,12.732			l5.179-7.134l-3.616,0l-4.846,7.228v-12.5h-3.328v20.054h3.328v-7.351l5.161,7.324h4.149L65.858,12.732z M56.243,13.191			c-0.87-0.68-1.986-1.096-3.061-1.443l-0.286-0.096c-1.597-0.53-2.974-0.989-2.974-1.995V9.601c0-0.904,0.789-1.488,2.012-1.488			c1.246,0,2.514,0.418,3.879,1.278l0.02,0.013l1.625-2.29L57.437,7.1c-1.604-1.1-3.68-1.783-5.419-1.783			c-3.063,0-5.202,1.902-5.202,4.627v0.058c0,2.877,2.354,3.807,4.561,4.454c0.115,0.036,0.229,0.072,0.341,0.107			c1.552,0.488,2.892,0.909,2.892,1.982v0.058c0,1.003-0.835,1.603-2.232,1.603c-1.536,0-3.224-0.658-4.75-1.853l-0.02-0.017			l-1.572,2.326l-0.013,0.021l0.019,0.015C47.804,20.14,50.142,21,52.294,21c3.344,0,5.422-1.827,5.422-4.77v-0.058			C57.716,14.941,57.233,13.966,56.243,13.191z"/>	</g></g></svg>